<svg xmlns="http://www.w3.org/2000/svg" xmlns:xlink="http://www.w3.org/1999/xlink" viewBox="0 0 462.39 494.43"><defs><style>.cls-1{fill:#f2f2f2;}.cls-2{fill:#c2e9fb;}.cls-3{fill:#d9bad8;}.cls-4{fill:#2e2d40;}.cls-5{fill:#fff;opacity:0.3;}.cls-11,.cls-13,.cls-15,.cls-5,.cls-6{isolation:isolate;}.cls-11,.cls-6{fill:#040000;}.cls-6{opacity:0.4;}.cls-7{fill:#e5ecf7;}.cls-8{fill:url(#名称未設定グラデーション_2);}.cls-9{fill:#55597a;}.cls-10{fill:#635f7a;}.cls-11,.cls-15{opacity:0.1;}.cls-12{fill:#f4bab9;}.cls-13,.cls-14,.cls-15{fill:#8dabdc;}.cls-16{fill:#3e3c54;}.cls-17{opacity:0.2;}</style><linearGradient id="名称未設定グラデーション_2" x1="278.77" y1="-151.1" x2="278.77" y2="90.48" gradientTransform="matrix(1, 0, 0, -1, -45.11, 334.12)" gradientUnits="userSpaceOnUse"><stop offset="0" stop-color="#7f7f80" stop-opacity="0.25"/><stop offset="0.54" stop-color="#7f7f80" stop-opacity="0.12"/><stop offset="1" stop-color="#7f7f80" stop-opacity="0.1"/></linearGradient></defs><title>アセット 1</title><g id="レイヤー_2" data-name="レイヤー 2"><g id="レイヤー_1-2" data-name="レイヤー 1"><circle class="cls-1" cx="231.19" cy="262.57" r="231.19"/><path class="cls-2" d="M296,12.05l5.85,47.29c-7.18,14-14.78,30-22,47.24l-13.77-71.3-.7.63a141.92,141.92,0,0,1,31.36-24.43Z"/><path class="cls-2" d="M303.33,57.85l-5.86-47.4C309.92,3.65,322.5-.07,334.6,0c.63,0,1.25,0,1.88.05C334.05,3.76,319.93,25.66,303.33,57.85Z"/><path class="cls-2" d="M209.54,130.66l-.63.85Q212,122,215.83,112.8l35.52,79.56.3-.38q-1.35,5.88-2.49,11.63Z"/><path class="cls-2" d="M233.59,77.79l-.67.76a222.68,222.68,0,0,1,31.75-41.92l14,72.66q-10.08,24.27-17.38,47.37Z"/><path class="cls-2" d="M390.92,74.07a185.63,185.63,0,0,1-1,37.48L266.07,146.33c4.49-13.28,9.32-25.84,14.13-37.36L390.77,75.11Z"/><path class="cls-2" d="M387.7,126l.16-1L262.19,158.28q1.53-4.92,3.14-9.74l124.32-34.9.16-1Q389,119.16,387.7,126Z"/><path class="cls-2" d="M217,110.82l-.65.81a266.58,266.58,0,0,1,16-32.09l28.12,79.94q-4.78,15.44-8.26,30.24Z"/><path class="cls-2" d="M243.42,247.9c-1.29,22.82.38,43.91,5,63-9.76-14-47.78-72.29-47.77-132.75Z"/><path class="cls-2" d="M371.94,174.37A256.81,256.81,0,0,1,354.39,204l.12-1.15-109.5,43a320.09,320.09,0,0,1,4.8-38Z"/><path class="cls-2" d="M304.24,57.47C321.6,23.82,336.11,2,336.32,1.63l-.4-.57c17.74.93,31.8,10.46,41.34,26.13Z"/><path class="cls-2" d="M248.6,206.59c-.23,1.19-.46,2.39-.67,3.57a316.68,316.68,0,0,0-4.3,34.32l-42.39-69.07-.59.85a125.69,125.69,0,0,1,4.28-31.52q1.65-6,3.57-12Z"/><path class="cls-2" d="M281.16,106.67c7.18-17,14.7-32.8,21.79-46.69l74.69-31,.1-1c7.05,11.94,11.54,27.33,13.1,45.11Z"/><path class="cls-2" d="M244.89,247.84,353.58,205.2c-39,56.85-98.88,105.62-102.7,108.71C245.2,292.81,243.64,270.4,244.89,247.84Z"/><path class="cls-2" d="M250.26,205.63l0-.07a434.48,434.48,0,0,1,11.3-45.09L387.5,127q-1.77,9.19-4.36,18.71a154.8,154.8,0,0,1-10,26.32Z"/><path class="cls-2" d="M83.65,211.4l34.67,32.69c3.43,15.39,7.76,32.54,13.16,50.43L75.4,248.39l-.13.93a141.14,141.14,0,0,1,8.57-38.81Z"/><path class="cls-2" d="M117.72,241.38,84.14,209.72c5.08-12.74,12.16-23.25,21.2-30.66.47-.39,1-.75,1.42-1.12C107.25,182.2,110.23,207.2,117.72,241.38Z"/><path class="cls-2" d="M92.7,357.9l0,1.06q-3.66-9.36-6.59-18.82l78.09,38.62v-.48q2.72,5.39,5.51,10.54Z"/><path class="cls-2" d="M77.5,301.84l0,1a222.2,222.2,0,0,1-2.28-52.54l57.15,47q7.71,25.13,16.83,47.57Z"/><path class="cls-2" d="M196.3,198.63a185.78,185.78,0,0,1,23.14,29.5L146.23,333.91c-5-13.09-9.3-25.84-12.95-37.78l63.57-96.6Z"/><path class="cls-2" d="M226.91,240.64l-.54-.91-75.5,105.86q-2-4.75-3.8-9.49l73.49-106.18L220,229Q223.57,234.61,226.91,240.64Z"/><path class="cls-2" d="M85.77,337.89v1A266,266,0,0,1,77.65,304l72.64,43.63q6.17,14.94,12.92,28.56Z"/><path class="cls-2" d="M193.57,426.59c13.57,18.4,28.3,33.58,44,45.36-16.43-4.53-82.91-25.2-121.47-71.77Z"/><path class="cls-3" d="M245.66,288A257.41,257.41,0,0,1,251,322l-.64-1L193.47,424a319.88,319.88,0,0,1-20.58-32.36Z"/><path class="cls-2" d="M119,241.13c-8.09-37-10.87-63.09-10.91-63.46l-.68-.19c14.26-10.6,31.17-12.22,48.51-6.24Z"/><path class="cls-2" d="M171.21,391.47c.58,1.07,1.17,2.13,1.76,3.18a317,317,0,0,0,18.58,29.18l-76.7-26.17.08,1a126.06,126.06,0,0,1-16.8-27q-2.59-5.71-4.89-11.5Z"/><path class="cls-2" d="M132.56,293.75c-5.33-17.69-9.6-34.64-13-49.86l37.76-71.5-.58-.85c13.05,4.7,26.32,13.69,38.86,26.39Z"/><path class="cls-3" d="M194.66,425.61l56.52-102.17c6.22,68.66-8.79,144.41-9.77,149.23C223.59,460,208.09,443.78,194.66,425.61Z"/><path class="cls-2" d="M171.88,389.68l-.07,0a431.93,431.93,0,0,1-20.06-41.93l75.68-106.13q4.5,8.21,8.58,17.19a155,155,0,0,1,9.05,26.68Z"/><path class="cls-2" d="M373.29,213l-9.05,46.78c-11.17,11.14-23.34,24-35.56,38.12l8.95-72.07-.86.39a141.82,141.82,0,0,1,37.37-13.54Z"/><path class="cls-2" d="M366.2,257.85,375,212.54c13.48-2.53,26.15-2.18,37.25,1.49.57.19,1.14.4,1.7.6C410.58,217.32,391.07,233.23,366.2,257.85Z"/><path class="cls-2" d="M254.39,299.09l-.86.61q5.93-8.1,12.36-15.64l9.18,86.63.41-.26c-2.07,3.44-4.05,6.88-6,10.29Z"/><path class="cls-2" d="M293.6,256.24l-.87.52a222.48,222.48,0,0,1,43.16-30l-9.12,73.44q-17.08,20-31.17,39.68Z"/><path class="cls-2" d="M444.38,301.33a185.67,185.67,0,0,1-12.53,35.34l-128.54-5.2c8.37-11.24,16.85-21.7,25-31.17l115.62,2Z"/><path class="cls-2" d="M425.27,349.68l.49-.95-129.84-7.09q3-4.22,6-8.29l129,5.22.48-.94Q428.59,343.62,425.27,349.68Z"/><path class="cls-2" d="M267.58,282.52l-.87.57a266.25,266.25,0,0,1,25.15-25.57l2,84.72q-9.31,13.2-17.2,26.2Z"/><path class="cls-3" d="M250.36,421.06c-8.27,21.31-13.21,41.88-14.73,61.48-5-16.31-23.1-83.52-4.41-141Z"/><path class="cls-2" d="M395.33,390.86a256.39,256.39,0,0,1-25.86,22.76l.47-1.06-117.42,7a321.68,321.68,0,0,1,16.33-34.7Z"/><path class="cls-2" d="M367.07,258.76c26.91-26.63,47.47-43,47.77-43.19l-.21-.67c16.59,6.37,27,19.78,31.24,37.63Z"/><path class="cls-2" d="M268.06,383.37c-.58,1.07-1.17,2.13-1.74,3.19a317.62,317.62,0,0,0-14.7,31.32l-19-78.79-.83.62a126.18,126.18,0,0,1,13.82-28.65q3.43-5.25,7.1-10.29Z"/><path class="cls-2" d="M329.91,298.42c12.09-14,24.12-26.66,35.16-37.67l80.61-6.38.4-.94c3,13.53,2.53,29.56-1.48,46.95Z"/><path class="cls-2" d="M251.78,421.46l116.55-6.95c-54.66,42-126.68,69.88-131.27,71.63C238.18,464.32,243.62,442.53,251.78,421.46Z"/><path class="cls-2" d="M269.94,383l0-.08a433.64,433.64,0,0,1,24.68-39.39l130.16,7.12q-4.53,8.19-9.93,16.45A154.69,154.69,0,0,1,397.14,389Z"/><path class="cls-4" d="M31.89,494.43s182.53-72.32,403,0"/><path class="cls-5" d="M206.44,462c.73,5.65,7,6.84,18.82,8.53,6,.86,8-1.81,8.34-5,.39,4-.76,8.56-8.34,7.47-13.19-1.88-19.48-3.14-18.85-10.68Z"/><rect class="cls-6" x="262.57" y="438.81" width="10.09" height="6.81"/><rect class="cls-6" x="171.93" y="372.51" width="61.62" height="7.43"/><rect class="cls-6" x="171.93" y="396.23" width="61.62" height="7.43"/><circle class="cls-7" cx="164.55" cy="320.59" r="0.69"/><path class="cls-8" d="M304,414.2s-14.79,3.57-20.64,10.27a20.1,20.1,0,0,1-7.87,5v-10.1c3.38-5.68,6.79-12,6.79-12,.15-.31,1.39-4.67,1.39-4.67,2.77-2.18-.16-9.8-.16-9.8s1.7-4.82.77-5.76-.15-3.42.62-4.51a5.64,5.64,0,0,0,.62-3.42c0-.93-1.24-2.34-3.24-3.11s.15-2,1.39-2.34,1.54-3.26.15-4.82.16-2.49.92-4.2-2.47-1.4-2.47-1.4V347.61h0s-.93-5.13-1.85-14.16-4.47-9.95-4.47-9.95a40.71,40.71,0,0,1-5.55-2.18,38.08,38.08,0,0,0-5.85-2.18,30.19,30.19,0,0,1-7.55-1,23.48,23.48,0,0,0-5.15-1.12l-.56-.27a20.25,20.25,0,0,1-9.35-9.91l-.26-.64a22.37,22.37,0,0,0,2.46-3.27v1.8h0v0c2.45-4.34,9.58-5.33,10.26-10.29a5.06,5.06,0,0,0,0-.68v-.53c-.09-1.38-.57-2.76-.66-4.16a8,8,0,0,1,0-1.2v0c.32-3.85,3.22-7.2,4.55-10.94a12.73,12.73,0,0,0,.69-3.11v0c0-.32.06-.64.07-1V272a14.54,14.54,0,0,0-4.81-10.52c-2.45-2.13-5.7-3.47-7.4-6.26-.8-1.29-1.18-2.83-2-4.08-1.63-2.36-4.62-3.32-7.45-3.66s-5.74-.23-8.45-1.12c-1.92-.63-3.66-1.74-5.6-2.3a10.7,10.7,0,0,0-11.51,4.15c-1,1.49-1.69,3.27-3.07,4.44-2.82,2.38-7.61,1.35-10.08,4.1-1.36,1.51-1.52,3.57-1.35,5.68v.07c0,.16,0,.33,0,.49v.23a.69.69,0,0,0,0,.24c.09.76.2,1.51.29,2.23,0,.11,0,.22,0,.33l.08.68c0,.16,0,.33,0,.49s0,.43.05.61a3.91,3.91,0,0,0,0,.49,33.35,33.35,0,0,1-3.54,16.59c-2.33,4.57-5.79,8.79-6.4,13.89a15.16,15.16,0,0,0-.07,2.52v.3c0,.1,0,.3,0,.45s0,.35.06.53a1.55,1.55,0,0,0,0,.29c0,.23.06.46.1.69l0,.15c.61,3.48,2,6.89,2.73,10.41a27.47,27.47,0,0,1,.55,3.94v0c0,.43,0,.84.06,1.26V321a26.55,26.55,0,0,1-3.59,1.1c-2.15.31-8.47,5.91-8,7.33s-2.83,11.2-2.92,11.5h0l-5.17,35.77s-2.75,2.65-1.89,4.36-.17,4.67-.17,4.67-4.63,2-3.6,3.26.56,3.58-.15,5.13-1.87,4.36,0,4.83.32,6.54.32,6.54,6.5-.75,6,3.11c-.15,1.23,4.55,4.6,6.51,6v18.59a56.11,56.11,0,0,1-7.7-2.62c-4-1.86-26.5-5.44-31.43,5.3s6.78,25,9.71,26.6a20.19,20.19,0,0,1,3.39,3.27c.62,1.09,4.16,1.4,4.16,1.4a26.77,26.77,0,0,1,4.62,2.64c.68.69,6.31,2.48,13,3.88h0S169.2,486,178,485s13.08-5.36,19.28-5.36c2.48,0,7.08-.34,11.72-.76a31.27,31.27,0,0,1,3.44.82,45,45,0,0,0,8,1.72s6.94,3.73,10.63,2.8a2.57,2.57,0,0,0,.84-.43H232a4.89,4.89,0,0,0,2.22-1.91c4.63.47,9.92,1.14,11.88,1.91,3.83,1.48,31.24-.57,31.24-.57s17.7.35,22.78,1.88,3.27-15.66-6.09-17.6a38.76,38.76,0,0,0-7.59-.75,16.72,16.72,0,0,0,1.77-2.15l5.6-.5s8.93-4.35,14-7a32.11,32.11,0,0,0,8.62-6.84s4.46-2.8,6.31-3.88,2.77-4.67,2.77-4.67C339.54,410,304,414.2,304,414.2Zm-40.11-39.82v-1.57c.49.36.42.91,0,1.57Zm.14,11c.38.49.74.94,1,1.29,1,1.29-.81,1.9-.68,4,0,.48.07,1.14.12,1.88h0c-.19-3.09-.35-5.63-.44-7.22Z"/><path class="cls-9" d="M183.81,434.48s-8.62-2-12.64-3.85-26.49-5.39-31.42,5.24,6.78,24.8,9.7,26.34,31.43-19.57,31.43-19.57l22.48,9.48,4.31-14.71Z"/><rect class="cls-10" x="193.32" y="437.41" width="97.86" height="34.04" rx="15.87"/><path class="cls-11" d="M291.18,454.43a17,17,0,0,1-2.84,9.41,17.51,17.51,0,0,1-2.15,2.63,16.94,16.94,0,0,1-12,5H210.34a17,17,0,0,1,0-34h63.81A17,17,0,0,1,291.18,454.43Z"/><path class="cls-12" d="M237.9,455.42s-9.82,2.52-17.82,2.41-45.47,15.45-45.47,15.45-5.39,12.29,3.41,11.28,13.08-5.29,19.28-5.29S223,477.12,223,477.12l18.77-13.87Z"/><path class="cls-12" d="M244,339.44l-17.6,3.47-1.14.22s-13.92-3.69-14.38-4-13.09-17.33-13.09-17.33,6.38.07,11.4-2.83l.53-.32a11.09,11.09,0,0,0,4.74-5.81c.09-.26.17-.52.24-.8a15.6,15.6,0,0,0-.14-7.57c-1.73-7.19,2.24-9.16,7.49-9,7.59.25,17.92,5,17.92,5a21.27,21.27,0,0,0,1.63,7c.08.21.17.43.26.63a20.06,20.06,0,0,0,9.35,9.8l.56.28c.56.27,1.15.52,1.76.75C267,324,244,339.44,244,339.44Z"/><path class="cls-11" d="M241.92,308.12a22.21,22.21,0,0,1-27.4,4.72,15,15,0,0,0,.1-8.37c-4.16-17.56,25.42-4,25.42-4A21.56,21.56,0,0,0,241.92,308.12Z"/><path class="cls-12" d="M247.48,292.52a22.09,22.09,0,0,1-3.36,11.73,21.66,21.66,0,0,1-2.47,3.24,22.05,22.05,0,0,1-15,7.15c-.43,0-.89.05-1.34.05a22.19,22.19,0,1,1,22.18-22.19h0Z"/><path class="cls-11" d="M244,339.44l-17.6,3.47-1.14.22s-13.92-3.69-14.38-4-13.09-17.33-13.09-17.33,6.38.07,11.4-2.83l.53-.32A20.76,20.76,0,0,0,227.92,325c2.48-.38,5-.63,7.46-.87,4.77-.5,12.07-1.94,15.9-6.16l.56.28c.56.26,1.15.52,1.76.75C267,324,244,339.44,244,339.44Z"/><path class="cls-13" d="M264.79,383.91c.15,3.25,2.52,39.89,2.52,39.89H193.59l.5-23.07.41-18.45.13-6,.6-21-2.14-1.88-11.61-10.23h0c.08-.28,3.23-9.61,2.79-10.93s5.62-6.64,7.69-6.94a27.6,27.6,0,0,0,3.46-1c3.49-1.24,8.14-3,8.65-2.75.72.39,8-.28,8.27-.31h0a19.76,19.76,0,0,0,14.9,6.87,18.77,18.77,0,0,0,3-.24c2.38-.36,4.77-.6,7.16-.85,4.8-.5,12.28-2,15.78-6.53a22.32,22.32,0,0,1,4.94,1.06,29.1,29.1,0,0,0,7.24,1,37.36,37.36,0,0,1,5.61,2.07,39,39,0,0,0,5.32,2.07s3.4.88,4.28,9.45,1.79,13.44,1.79,13.44l-17.57,15.22S264.65,380.65,264.79,383.91Z"/><polygon class="cls-12" points="177.03 411.07 179.72 415.38 189.81 418.94 196.75 406.29 190.36 401.98 180.11 397.98 174.26 401.36 177.03 411.07"/><path class="cls-9" d="M263.14,432.32s14.32-1.07,20.18-7.7S304,414.45,304,414.45s35.58-4.15,21.55,27.27c0,0-.92,3.54-2.77,4.62s-6.32,3.86-6.32,3.86l-54.66-4.78Z"/><path class="cls-11" d="M291.18,454.43a17,17,0,0,1-2.84,9.41c-9.2.81-29.56,2.73-33.83,3.92-5.23,1.45-15.83-1.08-17-1.36l-.11,0s-2-6.2-3-10.16c-.43-1.8-.66-3.14-.38-3.24.93-.31,9.4-2.62,9.25-1.3s25.42-9.93,25.42-9.93l.79,9.86C272.08,454.57,291.18,450.15,291.18,454.43Z"/><path class="cls-9" d="M317.52,446.19l-1.08,4a32,32,0,0,1-8.62,6.77c-5.08,2.62-14,6.93-14,6.93s-32.81,2.78-38.35,4.31-17.11-1.38-17.11-1.38-4.3-13.1-3.38-13.41,9.39-2.61,9.24-1.29,25.43-9.94,25.43-9.94Z"/><path class="cls-12" d="M226.17,480.72s16.12,1.13,20,2.59,31.23-.56,31.23-.56,17.71.35,22.78,1.86,3.27-15.51-6.09-17.42-22.55.9-22.55.9l-16.69-2.16c-1.81-.23-13.7.11-13.7.11Z"/><path class="cls-11" d="M162.79,438.21s21.32,1.92,27.18,5.41Z"/><path class="cls-11" d="M164,433.36c.34.11,9.82,1.35,9.59,2.26S164,433.36,164,433.36Z"/><path class="cls-11" d="M149.15,457.13l1.23,4.62a20,20,0,0,1,3.39,3.23c.61,1.08,4.16,1.39,4.16,1.39a26.06,26.06,0,0,1,4.62,2.62c.93.92,10.93,3.85,20.33,5.08s26.81,3.54,30.5,4.78a45,45,0,0,0,8,1.69s6.93,3.7,10.63,2.77,10-17.71,10-17.71-24.33-5.7-25.1-7.55-24.19-10.47-24.19-10.47l-13.86.33Z"/><path class="cls-9" d="M148.22,457.59l1.23,4.62a20.34,20.34,0,0,1,3.4,3.23c.61,1.08,4.15,1.39,4.15,1.39a25.71,25.71,0,0,1,4.62,2.62c.93.93,10.94,3.85,20.34,5.08s26.8,3.54,30.5,4.78a45.46,45.46,0,0,0,8,1.69s6.93,3.69,10.63,2.77,10-17.72,10-17.72-24.34-5.7-25.11-7.55-35.12-15.86-35.12-15.86l-10.77-2.46Z"/><path class="cls-14" d="M179.72,340.36,177,341.9l-5.17,35.43s-2.75,2.62-1.89,4.31-.17,4.62-.17,4.62-4.64,2-3.61,3.24.56,3.54-.14,5.08-1.87,4.31,0,4.77.31,6.47.31,6.47,6.51-.74,6,3.08c-.2,1.54,7.35,6.46,7.35,6.46s-8.58-15.56,10.64-13.4l1.65-8.77s1.65-4.94,0-6.47.37-8.85.37-8.85l.36-31.81Z"/><path class="cls-15" d="M175.54,386.11c.34.57,10.71,1.73,11.39,3.57S175.54,386.11,175.54,386.11Z"/><path class="cls-11" d="M172.26,394.91s1.41-4.4,4.75-3.61S172.26,394.91,172.26,394.91Z"/><path class="cls-11" d="M170.46,401.34s2.48-5.87,5.86-5.42S170.46,401.34,170.46,401.34Z"/><path class="cls-12" d="M283.32,401.21l-1.08,6.46S271.15,428,269.15,428.31s-12.93-13.55-12.93-13.55l-2.93-13.56L264.81,399l5.12-5.06S282.85,395.2,283.32,401.21Z"/><path class="cls-14" d="M278.38,346.69l4,2.8v14.92s3.11-.29,2.37,1.33-2.22,2.51-.89,4,1,4.28-.15,4.58-3.25,1.48-1.33,2.22,3.11,2.06,3.11,3a5.3,5.3,0,0,1-.6,3.25c-.73,1-1.47,3.4-.59,4.29s-.74,5.46-.74,5.46,2.81,7.24.15,9.31c0,0-1.18,4.13-1.33,4.43,0,0,1.87-14.38-16.72-8.3,0,0-.34-5.48-.47-7.51s1.6-2.63.65-3.84-3.35-4-2.22-4.72.74-2.07.3-3.11-2-1-.59-2.29,2.25-2.43,1.42-3-2.28-2.52-1.13-3.4,1.18-13.74,1.18-13.74S269.52,337.38,278.38,346.69Z"/><path class="cls-11" d="M267.66,380.81s12.18-1.69,13,.79S267.66,380.81,267.66,380.81Z"/><rect class="cls-16" x="178.88" y="393.06" width="96.57" height="54.85" rx="4.51"/><circle class="cls-7" cx="227.17" cy="420.48" r="3.56"/><path class="cls-11" d="M195.05,359.44s9.26,7.07,16.42,1.68C211.47,361.12,199.36,362.22,195.05,359.44Z"/><path class="cls-11" d="M241.92,361.34s9.25,7.07,16.41,1.68C258.33,363,246.24,364.13,241.92,361.34Z"/><path class="cls-11" d="M247.48,292.52a22.09,22.09,0,0,1-3.36,11.73,33.86,33.86,0,0,0-5-17.51c-3.08-4.74-12.44-13-18.87-10.71a4.56,4.56,0,0,0-2.81,3c-.64,2.42,1.23,3.45,2.43,5.36a16.44,16.44,0,0,1,2.24,11.06c-.08.52-.19,1-.32,1.54-1,3.8-3.33,8.15-.94,11.26,1.67,2.16,5.25,2.93,5.74,5.61a3.23,3.23,0,0,1,0,.76c-.11,1.82-1.66,3.42-2.33,5.2-.8,2.1-.35,4.18.47,6.29,1.07,2.75,2.78,5.53,3.19,8.43s-.48,5.6-1.53,8.33a37.63,37.63,0,0,0-2.54,7.85c-.75,5.12,1.13,11-2.09,15.08a2.24,2.24,0,0,1-1.41.95c-2.06.22-1.72-3.49-3.37-4.74a14.73,14.73,0,0,1-.43,6.42c-.78,2-2.82,3.74-5,3.4l-.74-4.84a14,14,0,0,1-5.13,3.21,37.28,37.28,0,0,1,5.36-14.48c-5.43,2.61-8.59,8.26-11.42,13.58-1.75,3.32-3.58,6.95-3,10.66.25,1.51.9,2.95,1,4.48s-.41,3.3-1.83,3.87a3.3,3.3,0,0,1-3.57-1.1l-.15-.19c-.09-.11-.17-.23-.25-.34a6.65,6.65,0,0,1-.41-.74,14.67,14.67,0,0,1-.86-2.83l-.09-.43c-1.44-6.3-2.73-12.79-1.68-19.16.39-2.34,1.09-4.67,1-7.05a13.17,13.17,0,0,0-.81-3.92c-1.26-3.53-3.68-6.76-5.06-10.31l0-.08c-.72-1.88-1.08-4.23.26-5.74a11.33,11.33,0,0,1,2.59-1.72c2.68-1.75,3.88-5.06,4.37-8.23a28.15,28.15,0,0,0,.34-4.31c3.63-1.29,8.48-3.15,9-2.86.76.41,8.32-.29,8.62-.32a11.38,11.38,0,0,0,5.3-6.14c.09-.26.16-.52.24-.79a22.18,22.18,0,1,1,32.71-19.53Z"/><path class="cls-16" d="M221.79,296.09c-1,3.8-3.33,8.15-.94,11.27,1.67,2.15,5.26,2.91,5.73,5.6.39,2.15-1.51,3.93-2.28,6-1.83,4.84,2.94,9.6,3.66,14.73.79,5.56-3.26,10.62-4.07,16.17-.74,5.12,1.14,11-2.09,15.09a2.22,2.22,0,0,1-1.41,1c-2.06.22-1.72-3.49-3.37-4.74a14.46,14.46,0,0,1-.43,6.42c-.78,2-2.82,3.73-5,3.39l-.73-4.84a14,14,0,0,1-5.13,3.21,37.43,37.43,0,0,1,5.35-14.48c-5.43,2.62-8.59,8.27-11.41,13.58-1.76,3.33-3.58,7-3,10.67.25,1.51.9,2.95,1,4.47s-.41,3.3-1.83,3.88a3.35,3.35,0,0,1-3.72-1.29,9.69,9.69,0,0,1-1.52-3.91c-1.48-6.43-2.85-13.07-1.78-19.58.39-2.35,1.09-4.67,1-7.05-.19-5.2-4-9.48-5.9-14.32-.73-1.88,1.08-4.23,2.42-5.74.69-.78-.43-1.17.43-1.72,2.67-1.75,3.88-5.06,4.37-8.22a28.48,28.48,0,0,0-.29-10.29c-1.08-5.07-3.57-10-2.95-15.16s-.67-10.52,1.66-15.05c3-5.86,7.17-11.64,6.32-18.17a10.53,10.53,0,0,1,2.68-8.39,101.6,101.6,0,0,1,9.22-8.37c1.38-1.15,2.91-1.63,3.93-3.1,2.61-3.63,7.19-2.25,11.51-1.1,1.94.56,3.68,1.66,5.61,2.29,2.7.86,5.6.76,8.44,1.1s5.82,1.3,7.45,3.63c.87,1.24,5.24,3.83,6,5.12,1.7,2.76,1,3,3.41,5.12a14.37,14.37,0,0,1,4,15.34c-1.47,4.09-1.24,6.52-1,10.85.12,1.78-2.75,4.7-3,6.46-.68,4.91-7.81,5.89-10.27,10.19.2-7.05-1.15-14.31-5-20.22-3.08-4.74-12.43-13-18.86-10.71a4.53,4.53,0,0,0-2.81,3c-.64,2.41,1.22,3.44,2.42,5.35A16.3,16.3,0,0,1,221.79,296.09Z"/><g class="cls-17"><path class="cls-2" d="M191.57,320.51a28.1,28.1,0,0,0-.61-6.59c-.92-4.31-2.84-8.53-3-12.86-.25,4.82,2,9.48,3,14.23A28.51,28.51,0,0,1,191.57,320.51Z"/><path class="cls-2" d="M209.93,355.49c.38-.69.76-1.37,1.18-2-5.42,2.61-8.58,8.26-11.41,13.58-1.63,3.07-3.31,6.42-3.06,9.84.21-2.94,1.65-5.8,3.06-8.46C202.32,363.51,205.22,358.31,209.93,355.49Z"/><path class="cls-2" d="M197.76,383.36a3.3,3.3,0,0,1-1.81,2.7,3.38,3.38,0,0,1-3.72-1.29,9.68,9.68,0,0,1-1.52-3.92,69.48,69.48,0,0,1-2.16-14c-.1,5.14,1,10.32,2.16,15.37a9.64,9.64,0,0,0,1.52,3.91,3.36,3.36,0,0,0,3.72,1.3c1.42-.59,2-2.36,1.84-3.88A.53.53,0,0,1,197.76,383.36Z"/><path class="cls-2" d="M222.29,291.46a15.77,15.77,0,0,1-.5,3.27c-.75,2.82-2.22,5.94-2,8.62.21-2.34,1.33-4.89,2-7.24A15.55,15.55,0,0,0,222.29,291.46Z"/><path class="cls-2" d="M198,270.89a33.74,33.74,0,0,0-.27-4.92c-.16-1.19-.36-2.47-.43-3.72a26.72,26.72,0,0,0,.43,5.11A34.72,34.72,0,0,1,198,270.89Z"/><path class="cls-2" d="M226.59,313a.15.15,0,0,0,0-.11c-.33,1.61-1.65,3.07-2.26,4.68a6.62,6.62,0,0,0-.38,3,6.45,6.45,0,0,1,.38-1.63C225.07,316.93,227,315.14,226.59,313Z"/><path class="cls-2" d="M189.94,354.23c-.19-5.2-4-9.48-5.9-14.32a9.82,9.82,0,0,1-.6-2.37,7.89,7.89,0,0,0,.6,3.75c1.84,4.78,5.58,9,5.88,14.07C189.94,355,190,354.6,189.94,354.23Z"/><path class="cls-2" d="M239.13,284.48c-3.08-4.75-12.43-13-18.86-10.71a4.58,4.58,0,0,0-2.82,3,3.3,3.3,0,0,0,0,1.62,1.06,1.06,0,0,1,0-.23,4.57,4.57,0,0,1,2.82-3c6.43-2.3,15.78,6,18.86,10.71,3.48,5.36,4.92,11.82,5,18.22C244.23,297.21,242.86,290.2,239.13,284.48Z"/><path class="cls-2" d="M254.39,294.5c-.68,4.89-7.76,5.88-10.25,10.15v1.42c2.46-4.31,9.59-5.28,10.26-10.19a5.86,5.86,0,0,0,0-1.45S254.39,294.47,254.39,294.5Z"/><path class="cls-2" d="M258.32,277.18c-1.46,4.09-4.85,7.7-4.56,12v.19c.31-3.82,3.22-7.13,4.54-10.83a13.5,13.5,0,0,0,.76-5.27A13.2,13.2,0,0,1,258.32,277.18Z"/><path class="cls-2" d="M221.8,363.55a2.19,2.19,0,0,1-1.41,1c-2.06.22-1.72-3.49-3.37-4.74,0,.49.08,1,.11,1.48,1.53,1.33,1.25,4.86,3.26,4.64a2.18,2.18,0,0,0,1.41-.95c1.84-2.31,2-5.23,2-8.26C223.73,359.21,223.36,361.62,221.8,363.55Z"/><path class="cls-2" d="M216.59,366.19c-.79,2-2.82,3.73-5,3.39-.24-1.61-.48-3.22-.73-4.84a14,14,0,0,1-4.87,3.11c-.1.5-.19,1-.26,1.49a14.09,14.09,0,0,0,5.13-3.21c.25,1.61.49,3.23.73,4.84,2.16.34,4.18-1.37,5-3.39a11.05,11.05,0,0,0,.56-4.38A9.26,9.26,0,0,1,216.59,366.19Z"/><path class="cls-2" d="M223.89,348.47a25.74,25.74,0,0,0-.18,3.93,21.53,21.53,0,0,1,.18-2.54c.78-5.3,4.49-10.15,4.15-15.4C227.74,339.21,224.6,343.64,223.89,348.47Z"/></g></g></g></svg>